<svg xmlns="http://www.w3.org/2000/svg" version="1.1" xmlns:xlink="http://www.w3.org/1999/xlink" xmlns:svgjs="http://svgjs.com/svgjs" width="1000" height="1000"><svg version="1.1" xmlns="http://www.w3.org/2000/svg" xmlns:xlink="http://www.w3.org/1999/xlink" x="0px" y="0px" viewBox="0 0 1000 1000" enable-background="new 0 0 1000 1000" xml:space="preserve">
<metadata> Svg Vector Icons : http://www.onlinewebfonts.com/icon </metadata>
<g><path d="M943.9,845.3H643c54.1-37.6,97.4-89.6,124.6-150.3c22.9,28.8,58.2,47.3,97.7,47.3c68.7,0,124.7-55.9,124.7-124.7C990,549,934.1,493,865.3,493c-24.3,0-47.1,7-66.3,19.1v-92.2c0-17.9-14.5-32.4-32.5-32.4H628.4c-0.4-0.5-0.8-1-1.3-1.5c-2.1-2.2-50.1-53.7,1.4-123.2c56.3-76.1,23.6-143.4-1.6-168.3c-6.4-6.3-16.6-6.2-23,0.1c-6.3,6.4-6.2,16.6,0.1,23c2.2,2.1,52.3,53.1-1.6,125.9c-43,58.1-32.5,111.7-14.1,144H443.9c-0.1-0.1-0.2-0.3-0.3-0.5c-1.3-1.7-32.4-41.7,1-92.9c40.5-62,16.2-112.5-2.3-130.6c-6.4-6.3-16.7-6.1-22.9,0.3c-6.3,6.4-6.1,16.7,0.3,22.9c0.3,0.3,33.9,34.2-2.3,89.6c-28.4,43.5-22.7,84.8-11,111.1H259.6c-3.3-6.7-15-34.1,0.8-60.7c29.2-49.2,0.5-90.2-0.8-91.9c-5.2-7.3-15.4-9-22.6-3.7c-7.3,5.2-8.9,15.4-3.7,22.6c0.2,0.2,17.7,25.2-0.8,56.4c-17.5,29.6-13.3,59.1-7.6,77.2H105.7c-17.9,0-32.4,14.5-32.4,32.4v127.4c0,123.3,61.8,232.4,156,298H42.4c-17.9,0-32.4,14.5-32.4,32.4c0,17.9,14.5,32.5,32.4,32.5h901.4c17.9,0,32.4-14.5,32.4-32.5C976.3,859.9,961.8,845.3,943.9,845.3z M865.3,525.5c50.8,0,92.2,41.4,92.2,92.2c0,50.8-41.4,92.2-92.2,92.2c-36.7,0-68.5-21.6-83.3-52.7c10.4-32.8,16.3-67.5,17-103.5C815.8,536.3,839.3,525.5,865.3,525.5z M138.1,547.3v-94.9h596v94.9c0,164.3-133.7,298-298,298C271.8,845.3,138.1,711.7,138.1,547.3z"></path><path d="M683.6,529.3c-9,0-16.2,7.3-16.2,16.2c0,127.5-103.7,231.2-231.2,231.2c-9,0-16.2,7.3-16.2,16.2s7.3,16.2,16.2,16.2c145.4,0,263.7-118.3,263.7-263.7C699.8,536.5,692.6,529.3,683.6,529.3z"></path></g>
</svg><style>@media (prefers-color-scheme: light) { :root { filter: none; } }
</style></svg>