<?xml version="1.0" standalone="no"?>
<!DOCTYPE svg PUBLIC "-//W3C//DTD SVG 20010904//EN"
 "http://www.w3.org/TR/2001/REC-SVG-20010904/DTD/svg10.dtd">
<svg version="1.0" xmlns="http://www.w3.org/2000/svg"
 width="980.000000pt" height="980.000000pt" viewBox="0 0 980.000000 980.000000"
 preserveAspectRatio="xMidYMid meet">
<metadata>
Created by potrace 1.14, written by Peter Selinger 2001-2017
</metadata>
<g transform="translate(0.000000,980.000000) scale(0.100000,-0.100000)"
fill="#000000" stroke="none">
<path d="M5995 8985 c-48 -17 -93 -67 -101 -113 -10 -50 2 -112 26 -141 180
-222 243 -377 244 -601 1 -238 -69 -420 -269 -705 -86 -123 -180 -308 -218
-430 -85 -275 -74 -574 33 -841 17 -43 38 -89 46 -101 8 -12 14 -25 14 -28 0
-3 -321 -5 -714 -5 l-714 0 -31 50 c-116 189 -143 428 -71 642 18 54 52 132
76 173 24 41 64 110 89 152 233 400 214 892 -45 1186 -53 59 -90 79 -150 79
-76 0 -125 -33 -155 -107 -25 -59 -13 -111 42 -181 189 -242 184 -531 -15
-861 -163 -270 -217 -442 -216 -693 1 -135 20 -250 60 -361 13 -37 24 -69 24
-73 0 -3 -327 -5 -727 -4 l-728 3 -28 84 c-37 109 -46 245 -23 343 8 37 41
118 72 180 31 62 67 143 80 181 69 202 53 439 -45 642 -61 128 -112 164 -216
153 -125 -15 -171 -137 -101 -269 48 -90 66 -160 66 -252 0 -105 -21 -183 -81
-294 -121 -226 -155 -477 -94 -706 8 -32 15 -60 15 -62 0 -3 -287 -6 -638 -7
l-637 -3 -50 -24 c-63 -32 -124 -93 -156 -156 l-24 -50 0 -835 c0 -752 2 -848
18 -970 100 -735 369 -1350 838 -1910 163 -195 430 -444 629 -586 l54 -39
-974 -5 -975 -5 -51 -27 c-65 -34 -134 -111 -157 -174 -22 -64 -22 -174 0
-239 25 -70 120 -166 188 -188 47 -16 381 -17 4640 -15 l4590 3 47 23 c66 32
125 94 156 160 34 75 36 193 5 264 -28 62 -96 134 -158 166 l-50 27 -1543 3
-1544 2 89 67 c452 340 824 785 1075 1287 33 66 61 122 63 124 1 1 44 -39 96
-90 96 -95 214 -181 328 -238 82 -41 245 -94 341 -111 119 -21 345 -16 470 10
498 105 888 507 975 1005 19 114 19 328 0 442 -44 250 -162 473 -349 660 -246
246 -533 364 -886 364 -213 0 -377 -38 -562 -131 l-97 -49 -3 508 -3 507 -30
54 c-33 60 -86 109 -154 143 l-46 23 -734 3 -733 3 -19 22 c-216 250 -272 600
-147 917 38 97 72 155 187 325 211 312 300 585 288 880 -9 200 -49 353 -140
528 -56 108 -165 251 -212 279 -44 25 -103 30 -150 13z m1245 -4107 c0 -632
-14 -824 -76 -1107 -251 -1129 -1167 -2034 -2294 -2265 -679 -139 -1341 -50
-1955 262 -768 392 -1332 1099 -1539 1932 -77 310 -79 332 -83 1033 l-4 627
2975 0 2976 0 0 -482z m1485 -267 c181 -37 330 -116 463 -245 302 -291 367
-742 161 -1102 -118 -205 -305 -355 -539 -429 -114 -37 -306 -46 -431 -20
-245 49 -459 196 -598 410 -38 58 -51 87 -48 105 3 14 23 95 45 181 65 249
112 563 112 756 l0 81 48 42 c222 197 511 278 787 221z"/>
<path d="M6665 4586 c-41 -18 -83 -69 -89 -109 -3 -18 -8 -84 -11 -147 -55
-1088 -855 -1988 -1928 -2170 -68 -11 -195 -24 -281 -29 -173 -9 -188 -14
-233 -81 -45 -66 -24 -182 40 -225 48 -31 87 -35 256 -24 887 56 1661 528
2116 1290 228 383 365 861 365 1278 0 97 -3 119 -21 151 -39 70 -137 100 -214
66z"/>
</g>
</svg>
